<svg width="220" height="160" viewBox="0 0 220 160" fill="none" xmlns="http://www.w3.org/2000/svg" role="img" aria-label="Two chat bubbles over an open book">
  <defs>
    <linearGradient id="g1" x1="0" y1="0" x2="1" y2="1">
      <stop offset="0" stop-color="#FDECEA"/>
      <stop offset="1" stop-color="#FFFFFF"/>
    </linearGradient>
  </defs>
  <ellipse cx="110" cy="140" rx="86" ry="10" fill="#F1F1F3"/>
  <path d="M40 118 L108 104 L108 138 L40 132 Z" fill="#FFFFFF" stroke="#E5E5E5" stroke-width="2" stroke-linejoin="round"/>
  <path d="M180 118 L112 104 L112 138 L180 132 Z" fill="#FFFFFF" stroke="#E5E5E5" stroke-width="2" stroke-linejoin="round"/>
  <line x1="52" y1="118" x2="96" y2="111" stroke="#E5E5E5" stroke-width="2" stroke-linecap="round"/>
  <line x1="52" y1="125" x2="96" y2="119" stroke="#E5E5E5" stroke-width="2" stroke-linecap="round"/>
  <line x1="124" y1="111" x2="168" y2="118" stroke="#E5E5E5" stroke-width="2" stroke-linecap="round"/>
  <line x1="124" y1="119" x2="168" y2="125" stroke="#E5E5E5" stroke-width="2" stroke-linecap="round"/>
  <rect x="58" y="26" width="88" height="52" rx="14" fill="#E02B20"/>
  <path d="M78 78 L90 78 L80 92 Z" fill="#E02B20"/>
  <circle cx="86" cy="52" r="5" fill="#FFFFFF"/>
  <circle cx="102" cy="52" r="5" fill="#FFFFFF"/>
  <circle cx="118" cy="52" r="5" fill="#FFFFFF"/>
  <rect x="128" y="58" width="50" height="34" rx="11" fill="url(#g1)" stroke="#E5E5E5" stroke-width="2"/>
  <path d="M150 92 L160 92 L168 102 Z" fill="#FDECEA" stroke="#E5E5E5" stroke-width="2" stroke-linejoin="round"/>
  <line x1="138" y1="71" x2="168" y2="71" stroke="#E02B20" stroke-width="3" stroke-linecap="round" opacity="0.55"/>
  <line x1="138" y1="80" x2="160" y2="80" stroke="#E02B20" stroke-width="3" stroke-linecap="round" opacity="0.35"/>
</svg>
